<svg width="1024" height="1024" xmlns="http://www.w3.org/2000/svg" class="css-1j8o68f">
 <g>
  <title>background</title>
  <rect fill="none" id="canvas_background" height="1026" width="1026" y="-1" x="-1"/>
 </g>

 <g>
  <title>Layer 1</title>
  <g fill="#3366ff" transform="matrix(11.472558683670623,0,0,11.472558683670623,-1355.3681358307408,239.2534286872252) " id="SvgjsG2651">
   <g id="svg_1">
    <g id="svg_2">
     <path id="svg_3" d="m171.75037,-16.25071c-13.465,-5.813 -21.469,9.813 -14.12,19.163c1.423,-9.672 7.955,-14.234 14.12,-19.163zm-30.257,21.18c-3.472,1.906 -4.914,5.843 -9.077,7.059c1.598,7.577 -4.641,14.246 2.017,8.068l0,-7.059c6.161,-3.368 10.435,-13.613 20.171,-10.086c-3.051,-4.271 -1.041,-13.372 -2.017,-17.146c-5.202,1.443 -10.108,6.544 -7.061,13.111c-5.634,-3.014 -17.388,1.233 -16.137,5.043c2.297,-1.9 11.027,-1.656 12.104,1.01zm-0.671,15.127c0,0 2.877,-4.601 7.313,-6.975c0.824,-0.441 -7.985,0 -7.985,0l0.672,6.975zm19.834,-17.145c5.575,-7.2 14.416,-11.136 27.232,-11.094c-7.621,-14.817 -29.049,1.197 -27.232,11.094zm33.284,15.129c-3.7,-10.131 -18.396,-13.015 -32.274,-11.095c27.511,6.801 -4.269,35.25 0,49.421c2.032,6.749 15.094,11.283 26.222,7.06c-23.024,-4.493 1.187,-45.024 -15.128,-53.454c20.691,5.66 -2.267,41.805 13.11,44.377c-4.249,-2.781 -3.641,-5.699 -3.049,-7.016c5.313,-9.719 15.724,-16.682 11.119,-29.293zm-31.266,-14.12c18.77,-3.389 33.964,4.848 36.309,21.18c14.315,-27.808 -23.072,-37.841 -36.309,-21.18zm-1.008,6.051c8.168,10.069 2.536,26.342 -14.122,23.196c1.136,2.898 0.205,7.865 2.019,10.086c1.627,-6.438 6.64,-9.498 16.137,-8.069c4.172,-6.782 5.151,-23.399 -4.034,-25.213zm-17.204,40.12c-0.096,0.069 -0.242,0.198 -0.446,0.399c-0.604,0.459 -1.363,0.763 -2.371,0.815c-0.081,-0.014 -0.158,-0.03 -0.234,-0.05c-0.535,-0.438 -3.771,-3.168 -3.961,-5.483c0.149,-0.22 0.389,-0.449 0.781,-0.614c0.038,-0.011 0.073,-0.022 0.111,-0.034c2.338,-0.229 3.041,1.177 5.169,1.154c-0.603,-1.795 2.955,-4.188 0,-5.041c-5.859,6.5 -18.003,-1.564 -12.103,-10.086c-3.632,-0.27 -4.86,1.864 -8.068,2.017c6.749,9.724 14.194,18.75 25.213,24.207c-1.135,-2.9 -0.203,-7.866 -2.016,-10.086c-0.697,0.928 -1.257,1.995 -2.075,2.802z" fill="#3366ff"/>
    </g>
   </g>
  </g>
 </g>
</svg>