<svg width="295" height="80" xmlns="http://www.w3.org/2000/svg">

 <g>
  <title>background</title>
  <rect fill="none" id="canvas_background" height="82" width="297" y="-1" x="-1"/>
 </g>
 <g>
  <title>Layer 1</title>
  <g id="svg_5">
   <g fill="#3366ff" transform="matrix(0.7260975317793272,0,0,0.7260975317793272,8.568206061395216,32.14048695630164) " id="SvgjsG3483">
    <g id="svg_1">
     <g id="svg_2">
      <path id="svg_3" d="m46.665541,-29.200216c-13.465,-5.813 -21.469,9.813 -14.12,19.163c1.423,-9.672 7.955,-14.234 14.12,-19.163zm-30.257,21.18c-3.472,1.906 -4.914,5.843 -9.077,7.059c1.598,7.577 -4.641,14.246 2.017,8.068l0,-7.059c6.161,-3.368 10.435,-13.613 20.171,-10.086c-3.051,-4.271 -1.041,-13.372 -2.017,-17.146c-5.202,1.443 -10.108,6.544 -7.061,13.111c-5.634,-3.014 -17.388,1.233 -16.137,5.043c2.297,-1.9 11.027,-1.656 12.104,1.01zm-0.671,15.127c0,0 2.877,-4.601 7.313,-6.975c0.824,-0.441 -7.985,0 -7.985,0l0.672,6.975zm19.834,-17.145c5.575,-7.2 14.416,-11.136 27.232,-11.094c-7.621,-14.817 -29.049,1.197 -27.232,11.094zm33.284,15.129c-3.7,-10.131 -18.396,-13.015 -32.274,-11.095c27.511,6.801 -4.269,35.25 0,49.421c2.032,6.749 15.094,11.283 26.222,7.06c-23.024,-4.493 1.187,-45.024 -15.128,-53.454c20.691,5.66 -2.267,41.805 13.11,44.377c-4.249,-2.781 -3.641,-5.699 -3.049,-7.016c5.313,-9.719 15.724,-16.682 11.119,-29.293zm-31.266,-14.12c18.77,-3.389 33.964,4.848 36.309,21.18c14.315,-27.808 -23.072,-37.841 -36.309,-21.18zm-1.008,6.051c8.168,10.069 2.536,26.342 -14.122,23.196c1.136,2.898 0.205,7.865 2.019,10.086c1.627,-6.438 6.64,-9.498 16.137,-8.069c4.172,-6.782 5.151,-23.399 -4.034,-25.213zm-17.204,40.12c-0.096,0.069 -0.242,0.198 -0.446,0.399c-0.604,0.459 -1.363,0.763 -2.371,0.815c-0.081,-0.014 -0.158,-0.03 -0.234,-0.05c-0.535,-0.438 -3.771,-3.168 -3.961,-5.483c0.149,-0.22 0.389,-0.449 0.781,-0.614c0.038,-0.011 0.073,-0.022 0.111,-0.034c2.338,-0.229 3.041,1.177 5.169,1.154c-0.603,-1.795 2.955,-4.188 0,-5.041c-5.859,6.5 -18.003,-1.564 -12.103,-10.086c-3.632,-0.27 -4.86,1.864 -8.068,2.017c6.749,9.724 14.194,18.75 25.213,24.207c-1.135,-2.9 -0.203,-7.866 -2.016,-10.086c-0.697,0.928 -1.257,1.995 -2.075,2.802z" fill="#3366ff"/>
     </g>
    </g>
   </g>
   <g fill="#3366ff" transform="matrix(1.9260198889920486,0,0,1.9260198889920486,75.69030772450648,35.75357937032618) " id="SvgjsG3484">
    <path id="svg_4" d="m8.815777,7.894764c1.78,0 3.44,-0.82 4.54,-2.26l1.4,1.04c-1.42,1.9 -3.6,2.98 -5.94,2.98c-4.12,0 -7.46,-3.34 -7.46,-7.46c0,-4.1 3.34,-7.44 7.46,-7.44c2.36,0 4.54,1.1 5.96,3l-1.42,1.04c-1.08,-1.46 -2.74,-2.28 -4.54,-2.28c-3.16,0 -5.7,2.54 -5.7,5.68c0,3.16 2.54,5.7 5.7,5.7zm15.54,-6.44c0.92,0.92 1.42,2.12 1.42,3.4s-0.5,2.48 -1.42,3.4c-0.9,0.9 -2.1,1.4 -3.38,1.4s-2.48,-0.5 -3.4,-1.4c-0.9,-0.92 -1.4,-2.12 -1.4,-3.4s0.5,-2.48 1.4,-3.4c0.92,-0.9 2.12,-1.38 3.4,-1.38s2.48,0.48 3.38,1.38zm-3.38,6.48c1.7,0 3.08,-1.38 3.08,-3.08s-1.38,-3.06 -3.08,-3.06s-3.08,1.36 -3.08,3.06s1.38,3.08 3.08,3.08zm14.02,-6.6l0,-6.58l1.72,0l0,14.68l-1.72,0l0,-1.06c-0.86,0.72 -1.94,1.26 -3.08,1.26c-1.28,0 -2.48,-0.48 -3.4,-1.38c-0.9,-0.92 -1.4,-2.12 -1.4,-3.4s0.5,-2.48 1.4,-3.4c0.92,-0.9 2.12,-1.38 3.4,-1.38c1.14,0 2.22,0.54 3.08,1.26zm-3.08,6.62c1.7,0 3.08,-1.4 3.08,-3.1s-1.38,-3.1 -3.08,-3.1s-3.08,1.4 -3.08,3.1s1.38,3.1 3.08,3.1zm15.1,-4.14c0.14,0.82 0.12,1.28 0.1,1.46l-7.06,0l0,0.04c0.2,1.52 1.34,2.66 2.66,2.68c0.82,-0.04 1.66,-0.38 2.24,-0.96l1.44,0.86c-0.36,0.4 -0.76,0.74 -1.22,1.02c-0.7,0.42 -1.56,0.64 -2.42,0.68c-1.2,0 -2.3,-0.5 -3.1,-1.4c-0.72,-0.78 -1.16,-1.78 -1.24,-2.88c-0.02,-0.14 -0.02,-0.28 -0.02,-0.42c0,-0.36 0.04,-0.72 0.12,-1.08c0.18,-0.84 0.58,-1.6 1.14,-2.22c0.8,-0.88 1.92,-1.38 3.1,-1.38c1.2,0 2.3,0.5 3.12,1.38c0.56,0.62 0.98,1.38 1.14,2.22zm-6.82,0.02l5.12,0l-0.02,-0.04c-0.4,-1.18 -1.42,-1.98 -2.54,-1.98c-1.1,0 -2.12,0.8 -2.54,1.98l-0.02,0.04zm10.56,-3.56l0,0.94c0.58,-0.64 2.28,-1.14 3.34,-1.14l-0.42,1.72c-1.6,0 -2.92,1.22 -2.92,2.76l0,4.88l-1.72,0l0,-9.16l1.72,0zm19.42,9.16l-1.58,-4.14l-5.82,0l-1.58,4.14l-1.92,0l5.48,-14.24l1.86,0l5.5,14.24l-1.94,0zm-2.28,-5.9l-2.2,-5.76l-2.22,5.76l4.42,0zm7.64,-3.26l0,0.94c0.58,-0.64 2.28,-1.14 3.34,-1.14l-0.42,1.72c-1.6,0 -2.92,1.22 -2.92,2.76l0,4.88l-1.72,0l0,-9.16l1.72,0zm12.78,3.54c0.14,0.82 0.12,1.28 0.1,1.46l-7.06,0l0,0.04c0.2,1.52 1.34,2.66 2.66,2.68c0.82,-0.04 1.66,-0.38 2.24,-0.96l1.44,0.86c-0.36,0.4 -0.76,0.74 -1.22,1.02c-0.7,0.42 -1.56,0.64 -2.42,0.68c-1.2,0 -2.3,-0.5 -3.1,-1.4c-0.72,-0.78 -1.16,-1.78 -1.24,-2.88c-0.02,-0.14 -0.02,-0.28 -0.02,-0.42c0,-0.36 0.04,-0.72 0.12,-1.08c0.18,-0.84 0.58,-1.6 1.14,-2.22c0.8,-0.88 1.92,-1.38 3.1,-1.38c1.2,0 2.3,0.5 3.12,1.38c0.56,0.62 0.98,1.38 1.14,2.22zm-6.82,0.02l5.12,0l-0.02,-0.04c-0.4,-1.18 -1.42,-1.98 -2.54,-1.98c-1.1,0 -2.12,0.8 -2.54,1.98l-0.02,0.04zm16.14,-2.46c0.82,0.84 1.28,1.94 1.28,3.14l0,4.92l-1.72,0l0,-4.92c0,-1.5 -1.2,-2.74 -2.7,-2.74c-1.48,0 -2.7,1.24 -2.7,2.74l0,4.92l-1.72,0l0,-9.16l1.72,0l0,0.88c0.78,-0.6 1.72,-1.06 2.7,-1.06c1.18,0 2.3,0.44 3.14,1.28zm10.72,-0.04l0,-1.06l1.72,0l0,9.16l-1.72,0l0,-1.06c-0.86,0.72 -1.94,1.26 -3.08,1.26c-1.28,0 -2.48,-0.48 -3.4,-1.38c-0.9,-0.92 -1.4,-2.12 -1.4,-3.4s0.5,-2.48 1.4,-3.4c0.92,-0.9 2.12,-1.38 3.4,-1.38c1.14,0 2.22,0.54 3.08,1.26zm-3.08,6.62c1.7,0 3.08,-1.4 3.08,-3.1s-1.38,-3.1 -3.08,-3.1s-3.08,1.4 -3.08,3.1s1.38,3.1 3.08,3.1z"/>
   </g>
  </g>
 </g>
</svg>